<mxfile host="app.diagrams.net" agent="Mozilla/5.0 (Macintosh; Intel Mac OS X 10_15_7) AppleWebKit/537.36 (KHTML, like Gecko) Chrome/134.0.0.0 Safari/537.36" version="26.1.0">
  <diagram name="Page-1" id="f09UW0xhOilFpxU1UN8Q">
    <mxGraphModel dx="1674" dy="785" grid="1" gridSize="10" guides="1" tooltips="1" connect="1" arrows="1" fold="1" page="1" pageScale="1" pageWidth="827" pageHeight="1169" math="0" shadow="0">
      <root>
        <mxCell id="0" />
        <mxCell id="1" parent="0" />
        <mxCell id="bZFTZhcOLTCebWkoZDsH-1" value="&lt;div style=&quot;background-color:#272822;color:#f8f8f2&quot;&gt;&lt;pre style=&quot;font-family:&#39;JetBrains Mono&#39;,monospace;font-size:13.5pt;&quot;&gt;&lt;span style=&quot;color:#f92672;&quot;&gt;func &lt;/span&gt;&lt;span style=&quot;color:#a6e22e;&quot;&gt;main&lt;/span&gt;() {&lt;br&gt;    &lt;span style=&quot;color:#75715e;&quot;&gt;// &lt;/span&gt;&lt;span style=&quot;color:#75715e;font-family:&#39;Menlo-Regular&#39;,monospace;&quot;&gt;设置日志和中间件等&lt;br&gt;&lt;/span&gt;&lt;span style=&quot;color:#75715e;font-family:&#39;Menlo-Regular&#39;,monospace;&quot;&gt;    &lt;/span&gt;logger.&lt;span style=&quot;color:#66d9ef;&quot;&gt;Init&lt;/span&gt;()&lt;br&gt;&lt;br&gt;    &lt;span style=&quot;color:#75715e;&quot;&gt;// &lt;/span&gt;&lt;span style=&quot;color:#75715e;font-family:&#39;Menlo-Regular&#39;,monospace;&quot;&gt;创建服务实例&lt;br&gt;&lt;/span&gt;&lt;span style=&quot;color:#75715e;font-family:&#39;Menlo-Regular&#39;,monospace;&quot;&gt;    &lt;/span&gt;h &lt;span style=&quot;color:#f92672;&quot;&gt;:= &lt;/span&gt;server.&lt;span style=&quot;color:#66d9ef;&quot;&gt;Default&lt;/span&gt;(server.&lt;span style=&quot;color:#66d9ef;&quot;&gt;WithHostPorts&lt;/span&gt;(&lt;span style=&quot;color:#e6db74;&quot;&gt;&quot;:9999&quot;&lt;/span&gt;))&lt;br&gt;    h.&lt;span style=&quot;color:#66d9ef;&quot;&gt;Use&lt;/span&gt;()&lt;br&gt;    user &lt;span style=&quot;color:#f92672;&quot;&gt;:= &lt;/span&gt;h.&lt;span style=&quot;color:#66d9ef;&quot;&gt;Group&lt;/span&gt;(&lt;span style=&quot;color:#e6db74;&quot;&gt;&quot;/user&quot;&lt;/span&gt;)&lt;br&gt;    {&lt;br&gt;       user.&lt;span style=&quot;color:#66d9ef;&quot;&gt;GET&lt;/span&gt;(&lt;span style=&quot;color:#e6db74;&quot;&gt;&quot;/say&quot;&lt;/span&gt;, handler.&lt;span style=&quot;color:#a6e22e;&quot;&gt;Hello&lt;/span&gt;)&lt;br&gt;    }&lt;br&gt;    &lt;span style=&quot;color:#75715e;&quot;&gt;// &lt;/span&gt;&lt;span style=&quot;color:#75715e;font-family:&#39;Menlo-Regular&#39;,monospace;&quot;&gt;路由处理&lt;br&gt;&lt;/span&gt;&lt;span style=&quot;color:#75715e;font-family:&#39;Menlo-Regular&#39;,monospace;&quot;&gt;    &lt;/span&gt;h.&lt;span style=&quot;color:#66d9ef;&quot;&gt;GET&lt;/span&gt;(&lt;span style=&quot;color:#e6db74;&quot;&gt;&quot;/&quot;&lt;/span&gt;, handler.&lt;span style=&quot;color:#a6e22e;&quot;&gt;Hello&lt;/span&gt;)&lt;br&gt;    h.&lt;span style=&quot;color:#66d9ef;&quot;&gt;GET&lt;/span&gt;(&lt;span style=&quot;color:#e6db74;&quot;&gt;&quot;/user&quot;&lt;/span&gt;, handler.&lt;span style=&quot;color:#a6e22e;&quot;&gt;GetUser&lt;/span&gt;)&lt;br&gt;    fmt.&lt;span style=&quot;color:#66d9ef;&quot;&gt;Println&lt;/span&gt;(runtime.&lt;span style=&quot;color:#66d9ef;&quot;&gt;NumGoroutine&lt;/span&gt;())&lt;br&gt;    &lt;span style=&quot;color:#75715e;&quot;&gt;// &lt;/span&gt;&lt;span style=&quot;color:#75715e;font-family:&#39;Menlo-Regular&#39;,monospace;&quot;&gt;启动服务&lt;br&gt;&lt;/span&gt;&lt;span style=&quot;color:#75715e;font-family:&#39;Menlo-Regular&#39;,monospace;&quot;&gt;    &lt;/span&gt;h.&lt;span style=&quot;color:#66d9ef;&quot;&gt;Spin&lt;/span&gt;()&lt;br&gt;}&lt;/pre&gt;&lt;/div&gt;" style="text;whiteSpace=wrap;html=1;" vertex="1" parent="1">
          <mxGeometry x="60" y="170" width="620" height="450" as="geometry" />
        </mxCell>
      </root>
    </mxGraphModel>
  </diagram>
</mxfile>
